HIERARCHY
ROOT Hips
{
	OFFSET 0.00000 0.00000 0.00000
	CHANNELS 6 Xposition Yposition Zposition Zrotation Yrotation Xrotation 
	JOINT LHipJoint
	{
		OFFSET 0 0 0
		CHANNELS 3 Zrotation Yrotation Xrotation
		JOINT LeftUpLeg
		{
			OFFSET 3.13874 -1.57224 1.49786
			CHANNELS 3 Zrotation Yrotation Xrotation
			JOINT LeftLeg
			{
				OFFSET 2.10955 -5.79594 0.00000
				CHANNELS 3 Zrotation Yrotation Xrotation
				JOINT LeftFoot
				{
					OFFSET 2.41843 -6.64458 0.00000
					CHANNELS 3 Zrotation Yrotation Xrotation
					JOINT LeftToeBase
					{
						OFFSET 0.04713 -0.12948 1.66229
						CHANNELS 3 Zrotation Yrotation Xrotation
						End Site
						{
							OFFSET 0.00000 -0.00000 0.85167
						}
					}
				}
			}
		}
	}
	JOINT RHipJoint
	{
		OFFSET 0 0 0
		CHANNELS 3 Zrotation Yrotation Xrotation
		JOINT RightUpLeg
		{
			OFFSET -3.13988 -1.57224 1.49786
			CHANNELS 3 Zrotation Yrotation Xrotation
			JOINT RightLeg
			{
				OFFSET -2.15006 -5.90725 0.00000
				CHANNELS 3 Zrotation Yrotation Xrotation
				JOINT RightFoot
				{
					OFFSET -2.34496 -6.44273 0.00000
					CHANNELS 3 Zrotation Yrotation Xrotation
					JOINT RightToeBase
					{
						OFFSET -0.08699 -0.23900 1.55223
						CHANNELS 3 Zrotation Yrotation Xrotation
						End Site
						{
							OFFSET -0.00000 -0.00000 0.80281
						}
					}
				}
			}
		}
	}
	JOINT LowerBack
	{
		OFFSET 0 0 0
		CHANNELS 3 Zrotation Yrotation Xrotation
		JOINT Spine
		{
			OFFSET 0.01292 1.96517 -0.16495
			CHANNELS 3 Zrotation Yrotation Xrotation
			JOINT Spine1
			{
				OFFSET 0.02122 1.88666 0.19706
				CHANNELS 3 Zrotation Yrotation Xrotation
				JOINT Neck
				{
					OFFSET 0 0 0
					CHANNELS 3 Zrotation Yrotation Xrotation
					JOINT Neck1
					{
						OFFSET -0.01683 1.81591 0.07903
						CHANNELS 3 Zrotation Yrotation Xrotation
						JOINT Head
						{
							OFFSET 0.00815 1.74013 -0.47700
							CHANNELS 3 Zrotation Yrotation Xrotation
							End Site
							{
								OFFSET -0.00204 1.83225 -0.16933
							}
						}
					}
				}
				JOINT LeftShoulder
				{
					OFFSET 0 0 0
					CHANNELS 3 Zrotation Yrotation Xrotation
					JOINT LeftArm
					{
						OFFSET 3.38482 1.41533 0.19802
						CHANNELS 3 Zrotation Yrotation Xrotation
						JOINT LeftForeArm
						{
							OFFSET 4.32712 -0.00000 0.00000
							CHANNELS 3 Zrotation Yrotation Xrotation
							JOINT LeftHand
							{
								OFFSET 3.28587 -0.00000 -0.00000
								CHANNELS 3 Zrotation Yrotation Xrotation
								JOINT LeftFingerBase
								{
									OFFSET 0 0 0
									CHANNELS 3 Zrotation Yrotation Xrotation
									JOINT LeftHandIndex1
									{
										OFFSET 0.43316 -0.00000 -0.00000
										CHANNELS 3 Zrotation Yrotation Xrotation
										End Site
										{
											OFFSET 0.34922 -0.00000 -0.00000
										}
									}
								}
								JOINT LThumb
								{
									OFFSET 0 0 0
									CHANNELS 3 Zrotation Yrotation Xrotation
									End Site
									{
										OFFSET 0.35456 -0.00000 0.35456
									}
								}
							}
						}
					}
				}
				JOINT RightShoulder
				{
					OFFSET 0 0 0
					CHANNELS 3 Zrotation Yrotation Xrotation
					JOINT RightArm
					{
						OFFSET -3.09725 1.62858 -0.14144
						CHANNELS 3 Zrotation Yrotation Xrotation
						JOINT RightForeArm
						{
							OFFSET -4.29104 -0.00000 0.00000
							CHANNELS 3 Zrotation Yrotation Xrotation
							JOINT RightHand
							{
								OFFSET -3.22720 -0.00000 -0.00000
								CHANNELS 3 Zrotation Yrotation Xrotation
								JOINT RightFingerBase
								{
									OFFSET 0 0 0
									CHANNELS 3 Zrotation Yrotation Xrotation
									JOINT RightHandIndex1
									{
										OFFSET -0.54362 -0.00000 -0.00000
										CHANNELS 3 Zrotation Yrotation Xrotation
										End Site
										{
											OFFSET -0.43828 -0.00000 -0.00000
										}
									}
								}
								JOINT RThumb
								{
									OFFSET 0 0 0
									CHANNELS 3 Zrotation Yrotation Xrotation
									End Site
									{
										OFFSET -0.44497 -0.00000 0.44497
									}
								}
							}
						}
					}
				}
			}
		}
	}
}
MOTION
Frames: 11
Frame Time: .0083333
-24.1091 15.9022 0.8660 201.4820 76.9294 -149.4550 0.0000 0.0000 0.0000 -9.2233 -26.3254 -17.4744 1.0214 6.4292 18.0350 0.0235 9.8527 -14.4177 15.2402 -19.4479 -75.9592 0.0000 0.0000 0.0000 43.6884 22.7065 21.6164 -0.0888 1.9215 -5.2887 -2.2584 -19.4407 -40.5653 -0.0241 -1.0016 2.7532 8.6019 2.5013 6.4168 0.9692 5.2803 -10.9960 -4.7502 1.7593 -15.2950 -11.1726 -6.8168 -24.4123 2.2252 -3.6844 45.9025 2.8651 -2.3056 25.9246 -0.0000 0.0000 0.0000 -79.9988 17.0510 3.5416 24.6816 -35.8768 -8.1026 -0.0000 0.0000 -1.0429 23.4511 34.1543 13.6876 -7.1250 0.0000 -0.0000 -12.4147 66.0659 -6.3536 -0.0000 0.0000 0.0000 51.0086 19.2483 10.3033 -68.7431 58.2219 -41.7009 0.0000 -0.0000 -6.5438 -47.3049 -25.1507 24.7330 7.1250 -0.0000 -0.0000 -23.2984 -63.1940 10.5806
-24.1076 15.8912 0.8978 202.4900 76.5212 -148.6690 0.0000 0.0000 0.0000 -8.6024 -26.0356 -17.5854 1.0229 6.4340 18.0489 0.0671 9.4643 -14.5832 15.2609 -19.4528 -76.0213 0.0000 0.0000 0.0000 44.5945 23.2027 22.0293 -0.0808 1.8335 -5.0457 -2.3789 -19.8948 -41.4993 -0.0278 -1.0762 2.9586 8.5108 2.5141 6.4069 1.2495 5.3369 -11.0246 -4.3976 1.8206 -15.3530 -11.4734 -6.9358 -24.1759 2.2309 -3.7173 45.9823 2.9268 -2.3658 25.9491 -0.0000 -0.0000 0.0000 -80.4388 17.1242 3.5867 24.8675 -36.0682 -8.2118 -0.0000 0.0000 -0.9761 23.5732 34.1923 13.7774 -7.1250 0.0000 -0.0000 -12.2979 66.1384 -6.3135 -0.0000 -0.0000 0.0000 52.0880 19.8094 10.8003 -68.7240 58.2185 -41.6846 0.0000 -0.0000 -7.6401 -46.3777 -26.3970 25.0091 7.1250 -0.0000 -0.0000 -22.2348 -64.3874 10.6911
-24.0985 15.8839 0.9415 200.5820 76.2503 -150.4560 0.0000 0.0000 0.0000 -8.7385 -26.1900 -17.8144 1.0267 6.4456 18.0828 0.1044 9.1802 -14.7925 15.2808 -19.4575 -76.0812 0.0000 0.0000 0.0000 45.0718 24.3176 22.8283 -0.0801 1.8254 -5.0233 -3.0733 -18.8354 -43.6518 -0.2223 -3.0351 8.3765 7.4912 2.5151 5.9818 1.3960 5.1881 -11.0857 -3.6213 1.8940 -15.2454 -11.8515 -7.0405 -23.9896 2.4119 -3.7751 46.0310 3.1033 -2.4299 25.9876 0.0000 0.0000 0.0000 -80.9487 17.0930 3.4439 25.0159 -36.2203 -8.2993 -0.0000 0.0000 -0.7252 23.6945 34.4546 13.9437 -7.1250 0.0000 -0.0000 -12.3840 66.4306 -6.4413 0.0000 0.0000 0.0000 53.2207 20.5630 11.0774 -68.3309 58.1493 -41.3506 0.0000 -0.0000 -9.4972 -45.6428 -27.5963 25.3493 7.1250 -0.0000 -0.0000 -21.3781 -65.5658 10.8424
-24.1334 15.8825 0.9042 196.6050 75.8863 -154.0080 0.0000 0.0000 0.0000 -9.9972 -27.2710 -18.0583 1.0542 6.5285 18.3259 0.0943 9.1960 -14.6582 15.2701 -19.4549 -76.0489 0.0000 0.0000 0.0000 43.0298 22.3909 21.4143 -0.1013 2.0528 -5.6516 -2.5987 -19.2402 -41.9294 -0.0840 -1.8693 5.1446 7.3030 2.4552 5.6853 1.1434 5.0405 -11.2208 -3.7597 1.8315 -15.2226 -12.0415 -7.2077 -23.9956 2.3755 -3.9169 46.0780 3.0819 -2.5165 26.0977 0.0000 0.0000 0.0000 -81.4713 16.9245 3.1315 25.0987 -36.3048 -8.3483 -0.0000 0.0000 -0.2610 22.9403 34.7152 13.5519 -7.1250 0.0000 -0.0000 -13.5583 66.4644 -7.0719 0.0000 0.0000 0.0000 54.2368 21.2161 11.0705 -68.3760 58.1573 -41.3889 0.0000 -0.0000 -11.8887 -44.6644 -28.5754 25.3022 7.1250 -0.0000 -0.0000 -19.9802 -66.3972 10.4876
-24.1451 15.8727 0.9139 196.7140 75.3494 -153.9530 0.0000 0.0000 0.0000 -9.7215 -27.6231 -18.3014 1.0773 6.5975 18.5283 0.0930 9.1789 -14.6164 15.2739 -19.4558 -76.0602 0.0000 0.0000 0.0000 43.1957 22.0890 21.2770 -0.1051 2.0906 -5.7560 -2.5393 -19.8285 -42.1521 -0.0475 -1.4069 3.8692 7.3726 2.4325 5.6120 1.2970 5.0444 -11.2407 -3.6239 1.8428 -15.2126 -12.0955 -7.3864 -23.9911 2.0963 -4.0278 46.1341 2.8905 -2.5941 26.1738 0.0000 0.0000 0.0000 -81.8828 16.8283 2.9389 25.1298 -36.3364 -8.3667 -0.0000 -0.0000 0.1755 21.8840 34.6027 12.8495 -7.1250 0.0000 -0.0000 -14.7402 66.0494 -7.5591 0.0000 0.0000 0.0000 55.1883 21.5065 10.9534 -68.8425 58.2391 -41.7854 0.0000 -0.0000 -14.1060 -43.8311 -29.1703 25.0756 7.1250 -0.0000 -0.0000 -18.6905 -66.8224 9.9709
-24.1528 15.8637 0.9300 196.5650 74.8918 -154.1630 0.0000 0.0000 0.0000 -9.5267 -27.8509 -18.5274 1.0994 6.6625 18.7193 0.1138 8.9647 -14.6665 15.2806 -19.4574 -76.0804 0.0000 0.0000 0.0000 43.4864 22.1313 21.4394 -0.1102 2.1400 -5.8927 -2.5969 -20.3261 -42.8152 -0.0418 -1.3189 3.6267 7.2707 2.4108 5.5415 1.4289 5.0259 -11.2789 -3.4155 1.8598 -15.2369 -12.1399 -7.4885 -23.8909 1.8320 -4.0327 46.1713 2.7366 -2.6296 26.1590 0.0000 0.0000 0.0000 -82.1645 16.9261 3.0683 25.1809 -36.3883 -8.3970 -0.0000 -0.0000 0.2311 22.1399 34.2384 12.8940 -7.1250 0.0000 -0.0000 -14.0902 65.7712 -7.1297 0.0000 0.0000 0.0000 56.1863 21.6128 10.8086 -69.0632 58.2771 -41.9731 0.0000 -0.0000 -15.2275 -43.0614 -29.4052 24.6472 7.1250 -0.0000 -0.0000 -17.4414 -66.8520 9.2987
-24.1561 15.8577 0.9506 196.2360 74.4981 -154.6020 0.0000 0.0000 0.0000 -9.4708 -27.9468 -18.5629 1.1022 6.6710 18.7442 0.1490 8.6020 -14.7602 15.2894 -19.4595 -76.1069 0.0000 0.0000 0.0000 44.0476 22.6767 22.0735 -0.1146 2.1826 -6.0105 -2.8963 -20.4948 -44.2098 -0.0859 -1.8899 5.2015 7.0076 2.3862 5.5259 1.5639 4.9831 -11.2976 -3.1139 1.8821 -15.2840 -12.2800 -7.5866 -23.7995 1.7796 -4.0881 46.2102 2.7197 -2.6763 26.1879 -0.0000 -0.0000 0.0000 -82.4481 17.1060 3.2351 25.2856 -36.4945 -8.4592 -0.0000 -0.0000 0.0804 22.9052 34.0244 13.3017 -7.1250 0.0000 -0.0000 -12.9678 65.7819 -6.5561 -0.0000 -0.0000 0.0000 57.0871 21.6200 10.6652 -68.9381 58.2556 -41.8667 0.0000 -0.0000 -14.5366 -42.3601 -29.3521 24.0830 7.1250 -0.0000 -0.0000 -16.2939 -66.5744 8.5696
-24.1577 15.8549 0.9661 196.0390 74.0364 -154.9620 0.0000 0.0000 0.0000 -9.4310 -28.0010 -18.5063 1.0936 6.6455 18.6694 0.1795 8.2337 -14.7871 15.3006 -19.4621 -76.1406 0.0000 0.0000 0.0000 44.5017 22.8733 22.5297 -0.1184 2.2183 -6.1093 -3.1066 -20.4125 -45.0000 -0.1327 -2.3478 6.4678 6.9400 2.3395 5.5428 1.6905 4.9363 -11.3037 -2.9299 1.8790 -15.3250 -12.5311 -7.7344 -23.7315 1.8045 -4.2084 46.2474 2.7524 -2.7591 26.2599 0.0000 0.0000 0.0000 -82.7723 17.2990 3.1276 25.3821 -36.5920 -8.5166 -0.0000 -0.0000 0.3084 22.8642 33.7083 13.1712 -7.1250 0.0000 -0.0000 -12.7402 65.4613 -6.3451 0.0000 0.0000 0.0000 57.7949 21.5277 10.4706 -68.5538 58.1887 -41.5400 0.0000 -0.0000 -11.5813 -41.9194 -28.8630 23.4325 7.1250 -0.0000 -0.0000 -15.5740 -65.8804 7.9351
-24.1601 15.8528 0.9818 196.0740 73.4754 -155.0990 0.0000 0.0000 0.0000 -9.2324 -27.9902 -18.5960 1.0905 6.6365 18.6427 0.2019 7.8151 -14.6516 15.3123 -19.4648 -76.1755 0.0000 0.0000 0.0000 44.9176 22.8397 22.7865 -0.1229 2.2602 -6.2252 -3.0020 -20.7776 -44.8657 -0.1102 -2.1403 5.8936 7.0143 2.2742 5.5243 1.8124 4.8757 -11.2868 -2.8234 1.8554 -15.3069 -12.7772 -7.8490 -23.6796 1.8587 -4.2916 46.2587 2.8113 -2.8255 26.3036 -0.0000 -0.0000 0.0000 -83.0586 17.4397 2.8508 25.4584 -36.6689 -8.5622 -0.0000 -0.0000 0.8455 22.4606 33.3350 12.7993 -7.1250 0.0000 -0.0000 -12.9080 64.9823 -6.2870 -0.0000 -0.0000 0.0000 58.2679 21.3597 10.1240 -68.1028 58.1084 -41.1569 0.0000 -0.0000 -6.4836 -41.3313 -28.7514 22.9305 7.1250 -0.0000 -0.0000 -14.6595 -65.5734 7.3564
-24.1646 15.8481 1.0006 195.9560 72.9478 -155.3030 0.0000 0.0000 0.0000 -9.0119 -27.9233 -18.9108 1.1040 6.6762 18.7597 0.2282 7.3322 -14.5238 15.3247 -19.4677 -76.2129 0.0000 0.0000 0.0000 45.3700 23.0542 23.1014 -0.1278 2.3045 -6.3481 -3.1001 -21.3490 -45.7101 -0.1042 -2.0814 5.7306 6.8612 2.2392 5.4254 1.9486 4.8222 -11.2748 -2.5728 1.8652 -15.2557 -12.9670 -7.9798 -23.6157 1.9276 -4.4377 46.2921 2.8529 -2.8991 26.3760 0.0000 0.0000 0.0000 -83.3239 17.5629 2.6529 25.5515 -36.7624 -8.6178 -0.0000 -0.0000 1.2862 21.7965 33.2396 12.3638 -7.1250 0.0000 -0.0000 -13.6201 64.7047 -6.5520 0.0000 0.0000 0.0000 58.3640 21.0638 9.6629 -67.7012 58.0352 -40.8161 0.0000 -0.0000 -0.2950 -40.0919 -29.8321 22.7230 7.1250 -0.0000 -0.0000 -12.7018 -66.4218 6.6063
-24.1721 15.8398 1.0164 195.6440 72.4716 -155.5830 0.0000 0.0000 0.0000 -8.8548 -28.0198 -19.3267 1.1280 6.7457 18.9642 0.2519 6.9145 -14.4449 15.3321 -19.4694 -76.2351 0.0000 0.0000 0.0000 45.6738 23.2846 23.2810 -0.1318 2.3403 -6.4472 -3.2653 -21.4981 -46.4699 -0.1499 -2.4947 6.8750 6.6684 2.2214 5.2650 2.0602 4.7873 -11.3117 -2.3292 1.8873 -15.2232 -13.2050 -8.1496 -23.5356 1.9704 -4.6130 46.3317 2.8789 -2.9950 26.4608 0.0000 -0.0000 0.0000 -83.5364 17.7424 2.4832 25.6195 -36.8305 -8.6585 -0.0000 -0.0000 1.7811 20.6606 33.4589 11.7445 -7.1250 0.0000 -0.0000 -15.1495 64.6036 -7.2674 0.0000 -0.0000 0.0000 58.2205 20.6777 9.2587 -67.3040 57.9613 -40.4793 0.0000 0.0000 5.3372 -37.8837 -30.8469 21.7484 7.1250 -0.0000 -0.0000 -9.1603 -66.8820 4.8451
